<svg xmlns="http://www.w3.org/2000/svg" viewBox="0 0 512 512" fill="none">
  <rect width="512" height="512" rx="112" fill="#059669"/>

  <!-- Lucide Receipt icon paths scaled from 24x24 to fit 512x512 -->
  <!-- Centered with translate(106,56) scale(12.5) to go from 24x24 → 300x300 centered -->
  <g transform="translate(88, 88) scale(14)" stroke="white" stroke-width="2" stroke-linecap="round" stroke-linejoin="round" fill="none">
    <!-- Dollar sign vertical line -->
    <path d="M12 17V7"/>
    <!-- S-curve of dollar sign -->
    <path d="M16 8h-6a2 2 0 0 0 0 4h4a2 2 0 0 1 0 4H8"/>
    <!-- Receipt outline with zigzag top and bottom -->
    <path d="M4 3a1 1 0 0 1 1-1 1.3 1.3 0 0 1 .7.2l.933.6a1.3 1.3 0 0 0 1.4 0l.934-.6a1.3 1.3 0 0 1 1.4 0l.933.6a1.3 1.3 0 0 0 1.4 0l.933-.6a1.3 1.3 0 0 1 1.4 0l.934.6a1.3 1.3 0 0 0 1.4 0l.933-.6A1.3 1.3 0 0 1 19 2a1 1 0 0 1 1 1v18a1 1 0 0 1-1 1 1.3 1.3 0 0 1-.7-.2l-.933-.6a1.3 1.3 0 0 0-1.4 0l-.934.6a1.3 1.3 0 0 1-1.4 0l-.933-.6a1.3 1.3 0 0 0-1.4 0l-.933.6a1.3 1.3 0 0 1-1.4 0l-.934-.6a1.3 1.3 0 0 0-1.4 0l-.933.6a1.3 1.3 0 0 1-.7.2 1 1 0 0 1-1-1z"/>
  </g>
</svg>
